<?xml version="1.0" encoding="UTF-8"?>
<svg id="Layer_1" data-name="Layer 1" xmlns="http://www.w3.org/2000/svg" viewBox="0 0 16.93 16.91">
  <defs>
    <style>
      .cls-1 {
        fill: none;
        stroke: #231f20;
        stroke-miterlimit: 10;
        stroke-width: .25px;
      }

      .cls-2 {
        fill: #231f20;
        fill-rule: evenodd;
      }
    </style>
  </defs>
  <g>
    <path class="cls-1" d="M4.09,6.52h1.94v6.23h-1.94v-6.23ZM5.06,3.42c.62,0,1.12.5,1.12,1.12s-.5,1.12-1.12,1.12-1.12-.5-1.12-1.12.5-1.12,1.12-1.12"/>
    <path class="cls-1" d="M7.24,6.52h1.86v.85h.03c.26-.49.89-1.01,1.83-1.01,1.96,0,2.32,1.29,2.32,2.97v3.42h-1.93v-3.03c0-.72-.01-1.65-1.01-1.65s-1.16.79-1.16,1.6v3.08h-1.93v-6.23Z"/>
  </g>
  <path class="cls-2" d="M8.46,0l.53.02.53.05.51.09.51.11.49.14.48.17.47.19.45.22.43.25.42.27.41.3.38.33.36.34.34.36.33.38.3.41.27.42.25.43.22.45.19.47.17.48.14.49.11.51.09.51.05.53.02.53-.02.53-.05.52-.09.52-.11.5-.14.5-.17.48-.19.47-.22.45-.25.44-.27.42-.3.4-.33.38-.34.37-.36.34-.38.32-.41.3-.42.28-.43.25-.45.22-.47.2-.48.17-.49.14-.51.11-.51.08-.53.05-.53.02-.53-.02-.52-.05-.52-.08-.5-.11-.5-.14-.48-.17-.47-.2-.45-.22-.44-.25-.42-.28-.4-.3-.38-.32-.37-.34-.34-.37-.32-.38-.3-.4-.28-.42-.25-.44-.22-.45-.2-.47-.17-.48-.14-.5-.11-.5-.08-.52-.05-.52-.02-.53.02-.53.05-.53.08-.51.11-.51.14-.49.17-.48.2-.47.22-.45.25-.43.28-.42.3-.41.32-.38.34-.36.37-.34.38-.33.4-.3.42-.27.44-.25.45-.22.47-.19.48-.17.5-.14.5-.11.52-.09.52-.05.53-.02ZM8.46.26l-.52.02-.51.05-.5.08-.49.11-.47.14-.47.17-.45.19-.44.21-.42.25-.4.26-.39.29-.37.31-.35.33-.33.35-.32.38-.29.39-.27.41-.24.43-.22.43-.19.45-.17.47-.13.48-.11.49-.08.5-.05.51-.02.52.02.52.05.51.08.5.11.49.13.47.17.47.19.45.22.44.24.42.27.4.29.39.32.37.33.35.35.33.37.32.39.28.4.27.42.24.44.22.45.19.47.17.47.13.49.11.5.08.51.05.52.02.52-.02.51-.05.5-.08.49-.11.48-.13.47-.17.45-.19.43-.22.43-.24.41-.27.39-.28.38-.32.35-.33.33-.35.31-.37.29-.39.26-.4.25-.42.21-.44.19-.45.17-.47.14-.47.11-.49.08-.5.05-.51.02-.52-.02-.52-.05-.51-.08-.5-.11-.49-.14-.48-.17-.47-.19-.45-.21-.43-.25-.43-.26-.41-.29-.39-.31-.38-.33-.35-.35-.33-.38-.31-.39-.29-.41-.26-.43-.25-.43-.21-.45-.19-.47-.17-.48-.14-.49-.11-.5-.08-.51-.05-.52-.02Z"/>
</svg>