<?xml version="1.0" encoding="UTF-8"?>
<svg id="puhekupla" xmlns="http://www.w3.org/2000/svg" version="1.1" viewBox="0 0 332.7 169.5">
  <!-- Generator: Adobe Illustrator 29.2.1, SVG Export Plug-In . SVG Version: 2.1.0 Build 116)  -->
  <defs>
    <style>
      .st0 {
        fill: #fff;
      }

      .st1 {
        fill: #202020;
      }
    </style>
  </defs>
  <path class="st0" d="M266.6,157.3c-12.5.5-25.5.9-36.9-4.2-11.4-5.1-20.7-17.3-18-29.5-58.3,2.1-118.4-1.3-171.9-24.7-15.5-6.8-32.6-19.1-31-35.9.8-8.7,6.6-16.2,13.9-21.1,7.2-4.9,15.7-7.5,24-9.9C120.3,11,201.2-.1,271.7,29.7c14.1,6,27.7,13.6,38.3,24.6,8.5,8.8,14.9,23.3,7.2,32.9-2.9,3.6-7.2,5.7-11.5,7.4-9.6,3.7-19.9,5.8-30.2,6.1-15.4.4-33.9-1.9-43,10.5-9,12.3-.5,30.8,12.5,38.6,13,7.9,29,8.8,43.9,12"/>
  <g>
    <path class="st1" d="M288.8,162.4c.5,0,.2-.2-1-.5h-.9c0,.1,1.9.4,1.9.4h0Z"/>
    <path class="st1" d="M280.8,160.3c-1.5,0-3.1-.1-2.3.4,1.5,0,1.8.1,3.4,0,1.2.2,2.1.5,1.9.6.4,0,1.9.4,2.5.4-1.5-.6-3.5-.9-5.6-1.1-.4-.1,0-.2.1-.2h0Z"/>
    <path class="st1" d="M266.8,101.1h-.8c.2,0,.5,0,.8,0Z"/>
    <path class="st1" d="M319.2,67.1c.2.5.4.7.4.8-.2-.5-.4-.9-.4-.8Z"/>
    <path class="st1" d="M312.8,55.9c.2.2.3.4.5.6-.2-.2-.3-.5-.5-.6Z"/>
    <path class="st1" d="M266.8,101.1h2c.1,0-1,0-2,0Z"/>
    <path class="st1" d="M264.4,158c.4,0,.8.1,1.1.2-.3,0-.7-.1-1-.2h0s0,0,0,0Z"/>
    <path class="st1" d="M236.1,108.4l-.4.4c-.1.1-.2.3-.3.4l.7-.8Z"/>
    <path class="st1" d="M230.9,130.6c-.1-.5-.5-.6-.7-.8.2.3.4.6.5,1.1,0,0,0-.1.1-.3h0Z"/>
    <path class="st1" d="M259.2,155.4l.7.2c-.2,0-.5-.1-.7-.2Z"/>
    <path class="st1" d="M252.2,102.1s.1,0,.2,0c0,0-.1,0-.2,0Z"/>
    <path class="st1" d="M237.9,154.5s0,0,0,0c.1,0,.2,0,0,0Z"/>
    <path class="st1" d="M266.6,157.4h-.4c0,0,0,.1,0,.2l.5-.2h0Z"/>
    <path class="st1" d="M295.1,40.4s0,0,0,0c.5.3.2.1,0,0Z"/>
    <path class="st1" d="M87,20.7c2.4-.3-3.8,1.2-.2.7-.4,0,3.1-1.2.2-.7Z"/>
    <path class="st1" d="M263.7,157.8c-.3,0-.7-.1-1-.2.5.1.8.2,1,.2Z"/>
    <path class="st1" d="M86.8,21.3h.4c-.1,0-.2,0-.4,0Z"/>
    <path class="st1" d="M245.7,19.4c0,0,.3.2.5.3,0,0-.1,0-.5-.3Z"/>
    <path class="st1" d="M282.9,34l-.9-.5c.3.2.6.4.9.5Z"/>
    <path class="st1" d="M225.3,15.1c-.5-.1-.7-.2-1.4-.3,0,0,.1,0,.2,0,.3,0,.6,0,1.2.2h0Z"/>
    <path class="st1" d="M203.9,12.1c.1,0,.3,0,.4,0,.2,0,.5,0,.7,0,0,0-1.1-.2-1.1-.2Z"/>
    <path class="st1" d="M191.8,122.9c.5,0,.8.1,1,.2-.3-.2,2.8-.3-1-.2Z"/>
    <path class="st1" d="M264.4,157.8c-.1,0-.3,0-.7,0,.2,0,.5.1.7.1,0,0,0,0,0-.1Z"/>
    <path class="st1" d="M224.1,17.1l-3.4-.6c.9.2,2.1.4,3.4.6Z"/>
    <path class="st1" d="M40.9,98.2l.7.3c-.3-.1-.5-.2-.7-.3Z"/>
    <path class="st1" d="M210.7,15c-.6-.2-1.2-.3-1.9-.4-.1,0-.3,0-.4,0,.8.1,1.5.2,2.3.4Z"/>
    <path class="st1" d="M192.8,123.2h0Z"/>
    <path class="st1" d="M212.9,127.3c0-.4,0-.7,0-.9s0-.2,0-.4c0-.2,0-.3,0-.5,0-.5,0-.7,0-.7-.1,0-.3.4-.4-.1.1-.7.2-1.3.3-1.8,0,0,0-.1,0-.2,0,0,0-.1,0-.1h-.8c-.6,0-.8,0-.9,0-.2-.1.3-.2-1-.3h-.4s-.2,0-.2,0c-.1,0-.3,0-.4,0-.3,0-.6,0-.8,0-.5,0-1.1.1-1.5.2-1,.1-1.9.2-2.8.2-.1,0-.5,0,0-.2-2.6.4-7.6.2-10.6.6-.2,0-.3,0-.4,0,.5.2.6.4.5.5-1.5,0-2.7.3-3.3,0,.9,0,1-.1,1.4-.2h-1.5c-1.4-.2,2.1,0,2.1-.3-3,.2-6.5.4-8.8.3-.5-.3,5.4-.1,2.3-.4h3.5c-2.7-.4,2.1.2-.3-.4-4.6-.1-5.2.2-9.9,0-1,.2.3.3-.7.5-6.6.2-5.2-.9-10-.6-1.3.2-1.8.6-5.2.2l1.2-.3c-4.5-.2-2.6.5-7.3,0,.9-.1,3.5,0,2.9,0-3-.4-2.2.1-4.5,0l-.5-.4c-2.4-.1-4.9-.2-7.5-.3-2.6,0-5.2-.3-7.9-.4.3,0,1.2-.1,0-.3-1.7-.1-3.4-.2-5.1-.4-1.7-.2-3.5-.4-5.3-.6-1.8-.2-3.5-.4-5.2-.7-1.7-.3-3.4-.6-5-.8h-2.5c-.6-.1-1-.3-.4-.3-2.5-.4-.2.2-1.4.1-1.4-.2-1.9-.4-.9-.4-2.2-.2-5.4-.6-8.5-1.1-.8-.1-1.6-.2-2.4-.4-.8-.1-1.5-.3-2.3-.4-1.5-.3-2.8-.6-3.9-.9h.9c-1.8-.3-2.8-.4-3.8-.4s-2-.1-3.6-.7h.6c-1.9-.4-3.9-.8-5.9-1.3-1-.2-2-.5-2.9-.7s-1.9-.5-2.9-.8c-1.9-.5-3.7-1-5.4-1.6-.9-.3-1.7-.5-2.5-.8-.8-.3-1.5-.6-2.2-.8-1.2,0-7.4-2.5-8.1-2.1-4.1-1.8-2.9-1.5-8.8-3.8-1.6-.6-2.5-.6-4.4-1.3v-.3c0,0-2.7-.8-2.7-.8l-1.3-.9-1.9-.7c.7.3,1.5.8,1.3.8-2.9-1-6.7-3.2-6.7-3.4l-1.6-.8-1.6-.8c-1.1-.5-2.1-1.1-3.2-1.7.2,0,1.2.6,2.1,1-3.4-1.7-.4-.6-3.6-2.2.4.3-.3,0-.4,0-1.4-1.1-4.6-3.4-6.9-5.3l.6.2c-1.9-1.8-4-3.7-5.7-5.9-.9-1.1-1.7-2.3-2.5-3.5-.6-1.3-1.4-2.5-1.9-3.9.6,2,.1,1.7-.5,0v-.8c-.5-1,.6,1.7-.5-.3-.5-2.1,0-1.5.4-.3l-.7-2.5c0-.2.3.4.4.6-.3-.5-.3-1.6-.4-2.8,0-.3,0-.6,0-.9,0-.3,0-.6,0-.9,0-.6,0-1.1,0-1.4h.1c0-1.6.3-2.8.6-3.9.3-1.1.6-2,.9-2.9.7-1.8,1.5-3.5,2.9-5.4,0-.1.1-.5.5-1.1.4-.5.8-1.2,1.2-1.8,2.4-2.6,5.6-5,9.2-7.1,2.6-1.6.6-.6,1.8-1.4.3,0,4.2-1.8,2.2-.7,2.3-1.1,3.9-1.7,5.6-2.4,1.7-.7,3.6-1.4,6.7-2.5-.7.1-1.5.3-1.1.1,1.1-.4,2.6-.7,2.5-.5h-.3c7-2.4,16.7-3.9,22.4-5.8h-.3c2-.5,3.9-1.1,5.9-1.7,2.8-.6-1.6.6.5.2,6.3-2,10.2-2.4,15.5-3.8,2.1-.1,5.8-.9,9.7-1.7,3.9-.8,7.9-1.7,10.7-1.9h-.4c1.4-.6,1.8-.3,2.9-.5-.2-.1-1.6.1-.7-.1,12.3-2.3,25.5-3.6,38.3-4.5,4.7-.3,2.6-1.2,8.5-1.1l-1.6.4c9.4-1,19.3-.8,28.5-.9-.5,0-.6.1-1.5.1,1.9.3,7.2.2,7.2,0,1.4,0,.3.2,1.2.3,1.9.2,4.9,0,5.9.3.2,0-.5,0-.9,0,1.3,0,5.9.5,4.7.1,3.5.4,6.6.5,9.4,1,1.8-.1,5.9.9,6.5.6-.3.4,5.9,1.3,8.1,1.5-.7,0,1.9.5,1,.5,2.5.5,4.7.8,4.3.5,2.2.7,4.5,1.1,6.5,1.5,2,.3,3.8.7,5,1.4,7.3,1.6,13.9,3.5,20.2,5.7-.2.2-1.9-.5-3.6-1-1.7-.5-3.3-1.1-3.3-.8,1.5.4,2.9.8,4.2,1.2,1.3.4,2.5.8,3.6,1.1,1.2.4,2.4.8,3.6,1.2,1.2.5,2.5,1,4,1.6,1.5.7-.9-.2-1.5-.3,6,2.1,11.2,4.8,16.3,7.2,0,0-.6-.2-1.1-.4,1,.5,2.2,1.3,2.2,1l-1-.5c-1.4-1.1,4.2,1.5,4.4,1.6-1-.2.2.5,1.3,1.2,1,.7,2,1.3.5.9.6.3,1.5.7,1.4.5.9.6,1.1.9.1.4,3.4,2,2.3,1.1,5.3,3.1,0,0-.7-.3-1-.4,1.6.9,3.2,1.8,5.5,3.7-.2,0,0,.2-.7-.4,2,1.6,3.8,2.9,5.6,4.4,1.8,1.5,3.5,3.1,5.2,5.3-1.4-1,1.1,1.6,1,2.1l.9,1.2c.3.4.6.8.9,1.2l-.5-1.1c1.5,2.2,2.9,4.2,3.7,6.3-.3-.6-.7-1.1-1-1.7.4.7.8,1.5,1.1,2.2.3.8.7,1.5.9,2.3-.2-.9-.5-1.8-.9-2.7.6,1.2.7,1.1.8,1.1s.2.1.7,1.8c-.2-.7.8,2.6.7,4h0c.2.6.3,1.3.4,2.1,0,.4,0,.8,0,1.2,0,.4,0,.9-.1,1.4-.1.5-.4-.4-.5-.1,0,.3.1.9,0,1.5-.1.6-.2,1.4-.5,2.2-.1.4-.2.8-.4,1.1-.2.4-.3.7-.5,1-.1.3-.3.6-.4.9-.1.3-.2.5-.3.7.2-.5,0-.6,0-.5l-.4,1c-.7,1-1,1-.9.8-1.2,1.3-1,1.2-.8,1.1.2-.1.4,0-1.3,1.3.3-.2.1-.2.6-.6-3.4,2.8-7.2,4.6-11.1,5.9-1.3,0,3.3-1.4,1.9-1.2-5.5,2.2-11.5,4.3-17.2,5.2h1.1c-.7.5-4.3.3-7.1.9.7-.1.9-.4.7-.3-2,.2-4,.4-6.2.5-2.3.2-4.8.3-7.8.4h.7c-2.3-.3-6.1-.2-8.7-.2-.8.1-2.2.2-1.3.4-3.9-.3-7.7.1-11.2.9-3.6.8-6.9,2-10.1,3.6.7-.4,1.7-1.1,1.1-.7l-1.3.8c-.4.2-.8.6-1.2.9l-1.2.9-1.1,1c.2,0,.4-.2.7-.4.2-.2.5-.4,1.1-.7-.3.2-.7.7-1.2,1.2-.2.2-.5.5-.8.8l-.4.4c-.1.1-.2.3-.4.4.4-.6.6-.8.7-.9,0-.1,0,0-.3,0-.4.3-1.1,1-1.5,1.4.2-.1,0,.2.1.2-.3.3-.5.5-.7.6-.2.2-.2.3-.3.4-.1.2-.1.4-.1.5,0,.1,0,.3-.2.7-.2.4-.6.9-1,1.8v-.3c-.3.8-.6,1.4-.8,2.2-.2.8-.4,1.5-.6,2.3-.5.6.3-1.6.1-1.8-.2.6-.3,1.2-.4,1.8,0,.6,0,1.2-.1,1.8,0,.3,0,.6,0,.9,0,.3,0,.6,0,.9,0,.6,0,1.1-.1,1.6,0-1-.1-2.5,0-3.5-.4,1.2-.4,1.8-.4,2.4,0,.3,0,.6,0,.9,0,.3,0,.7,0,1.1v-.2,2.1c.2.7.3,1.4.5,2v-1c.2.7.4,1.4.7,2.2.3.7.5,1.5.8,2.3.6,1.6,1.2,3.2,2.4,4.9-2.2-3.3-.5-.5-.9-.6.2.5.5,1.1.6,1.5.2.4.3.7.2.5.6.8,1,1.5,1.5,2.2.5.7,1.1,1.6,2.1,2.5,0,.1,1.4,1.6.9,1.4,1.7,1.8-.3-.6,0-.5.3.3.7.7,1.1,1.1.4.4.8.7,1.2,1.1.8.8,1.7,1.6,2.6,2.4.5.4,1,.8,1.5,1.1.5.4,1.1.8,1.6,1.1,1.2.6,2.4,1.3,3.7,1.8,1.1.5,2,.8,2.8,1.1.8.3,1.4.5,2.1.6,1.3.4,2.6.7,4.7,1.3.7.3.4.3-.1.2-.5,0-1.1-.2-1.1-.2,2.2.9,4,1.3,6.2,1.8-.5,0,0,.2.6.4,1.8.4,1.2,0,3.5.6-.4,0-1,.1-1.8,0,2.1.4,4.2.6,6.4.9.5.3-1.4,0-2.1,0,2.4.4,6.3,1,7.1.9l-1.5-.4c.9.1.4.3-.2.2-2.1-.2-3-.6-3.1-.8l1.5.2c-1.5-.8-6.2-1-9.3-1.8h1.4c-1.1-.2-2.1-.4-3.2-.5-.6-.3-1-.6.5-.3-2.1-.8-2-.3-3.8-1.1-.2,0-.1,0,.1,0-.7-.2-1.4-.3-2.1-.5.4,0-.3-.4,1,0-3.7-1.4-6.1-1.9-7.3-2.7h.3c-2.5-.9-2.6-1-2.7-.9,0,0,.1.4-1.8-.5-.7-.7-1.4-1.3-2-2.1h-.6c-.5-.4-1.4-1-1.1-1-1.8-1.1.2.3-.9-.3-.5-.5-1.1-1-1.7-1.6-.6-.6-1.2-1.2-1.8-1.7-1.1-1.2-2-2.2-2-2.6-.8-.6,1.5,2.1-.5,0,0-.5-.6-1.1-1.2-1.9-.6-.8-1.4-1.8-1.9-3,.6.6,1.7,2.6.6.4-.5-.5-1.1-1.6-1.6-2.8-.4-1.2-.9-2.5-1.2-3.4,0,0-.2-.3-.4-.7,0-.2-.2-.5-.3-.8,0-.3-.2-.7-.2-1-.4-1.5-.6-3.5-.7-5.2,0,0,0-.3.1-1,0-.3,0-.7,0-1.1,0-.4.1-.9.2-1.4.1-1,.5-2.1.8-3.1.4-1,.9-1.9,1.2-2.6h0c0-.3.4-1.1,1-2.2,0-.1.2-.3.2-.4.1-.1.2-.2.3-.4.2-.2.4-.5.6-.8.4-.5.8-1.1,1.3-1.4,0,.2-.2.5-.9,1.6l.7-.9c.3-.3.5-.5.8-.8.1-.2.4-.5.6-.8.1-.1.3-.3.5-.5.2-.2.5-.4.8-.6l-.3.5c2.3-1.8,5-3.5,8.8-4.3,0-.2-.7-.1-1-.2-.2,0-.2-.1,0-.3.2-.1.8-.4,1.8-.7.2.1.4.3-.7.6.3-.1,1.2-.4,1.9-.5l-1.6.6c1.8-.3.9-.4,2.3-.7,0,.2,1.1,0,.9.1-.2,0-.5,0-.8.1-.3,0-.7.1-.9.2.8-.2,1.7-.3,2.4-.4.8,0,1.4-.1,1.7,0-.1-.1,0-.3,1.1-.4,3-.3,1.1.1,2.8,0,.7-.2,2.7-.1,2.7-.4.9,0,1.1.1,1.4.2,1.6-.2,7.4-.1,5.6-.4h-.4c0,0,.2,0,.3,0h0,0c5.2-.3,10.9.3,16.1-.4h0c3.1-.3,6.9-.8,9-1.5.9-.2,2.2-.3,1.8,0,2.3-.6,2.5-.8,5.9-1.5-2.3.8.8,0-2.3.8,3-.7,3.7-.8,6.8-2.1-1,.6,2.3-.5,3.6-1.1-.7.2-1.4.4-2.1.6,1.5-.6,2.9-1.1,4.2-1.7l-.6.6c3-1.1,5.6-2.7,7.6-4.7,1-1,1.9-2,2.6-3.1.8-1,1.4-2.2,2.1-3.3.1-.9-.1,0-.6.8-.5.8-.9,1.6-.7.9.3-.7.8-1.3,1-2,.3-.7.6-1.3.8-1.9.4-1.2.7-2.2.7-2.7,0-.5,0-1,.1-1.4,0-.4,0-.8,0-1.1,0-.6-.1-1.1-.3-1.6-.3-1-.5-1.9-1-4,0,.3,0,.6-.2.4,0,0-.2-.3-.3-.6-.2-.4-.4-.9-.6-1.6-1-2.7-.9-3.5,0-1.9.3.6.4,1,.3,1,.4.9.8,2.1.5.9l-.2-.3c-.2-.7-.7-2-1.1-3-.4-1-.8-1.7-.5-1.3-1.1-1.9-.6-.8,0,.7-.4-.9-.7-1.6-1.1-2.3-.4-.7-.8-1.4-1.2-2-.8-1.3-1.7-2.5-2.9-4,.3.5.6,1.1.2.6-1.7-2.3-2.3-2.6-2.6-2.9-.3-.2-.5-.3-1.9-1.6-1.4-1.6.9.2-2-2.3-1.7-1.7-.1-.6.6,0-2.8-2.2-4.9-4.4-6.5-5.7l1.5,1.1c-.9-.6-1.6-1.2-2.4-1.8l.7.8c-.8-.7-1.6-1.2-1.5-1.3-1-.5.5.8-1.5-.3-1.1-.9-3.7-2.4-4-2.9,3.8,2.6-.2-.6,3,1.6-.6-.4-1.4-.9-2.3-1.5-.1-.1.2,0,.4.2-3.5-2.6-1.9-.8-5.8-3.1.6.1-.7-.8-1.4-1.1,1.6.9.6.7-.9,0-2.5-1.5-2.8-1.4-4.1-2.1l1.5.9c-.6-.1-1.9-.8-3.7-1.6,0-.2,1.7.7,1.1.4-2.1-.7-4.4-2.5-7.3-3.6-1.3-.7,0-.4-1.1-.9-3.3-1.2-3.4-1.7-6.9-2.9.9.6,1.1.6-1.4-.1l5.7,2.1-3.7-1.1c1.7.7,3.6,1.3,4.6,1.7-1.8-.5-1.6-.5-.9,0-1.1-.6-2.2-1-3.5-1.5s-2.5-.8-3.8-1.4l.3-.5c-2-.8-3.8-1.5-5.8-2.1-2-.6-4.2-1.2-6.8-2.1.6.2,1.1.4,1.7.6-.8,0-3.3-1-5.1-1.4.2-.1-.9-.5-1.6-.9,0,.1-4-1.1-4.6-.8l-2.4-.9c-2.2-.6-3.5-.7-4.8-.9-1.3-.1-2.5-.3-4.6-.7,1.3,0-.6-.5,2.3,0-1.4-.3-2.7-.6-2.8-.5-.8-.3-4-.5-5.3-.9-.6,0-.9.2-2.5-.1-.2,0,0,0,0,0,0,0-2.5-.3-1.2.2-4.3-1.4-12.4-1.7-16.2-2.6-1.6-.2-3.3-.2-5-.4-1.7-.1-3.4-.2-4.8-.3.2,0,0,0,.6,0-4-.4-2.5.4-7,0-2.3-.4,2.4,0,1-.3-.6-.7-5.5-.1-8.5-.6h.7c-2.3-.2-5.7,0-9.5.1,0,0,.2,0,0,0-1.3.2-3.2.3-5.2.4-2,.1-4.1.3-6,.4,1.1-.3,1.6-.2,1-.4-1.6.1.5.4-2.8.6-1.1,0-3.4,0-3.8-.3l3.1-.2c-1.6-.3-4,.2-5.6.3l.2-.2c-4.7.4-4.8.7-9.8,1.2h.5c-2.7.7-2.3,0-5.1.6l-.9-.3c-1.8.3-6.3,1.1-9.6,1.6.9-.3,2.3-.6,3.8-.8,1.5-.3,3-.5,4.2-.7-1.8.2-6.1.7-7,1.1.7-.1,1.6-.3,2.4-.4-2.2.6-5.1,1.1-8.6,1.6.3-.4-2.1-.1-4.8.2-2.7.4-5.9.9-7.2.8-6.2,1.4-12.5,2.1-19.8,3.7,2.7,0-2.1.5-1.6,1-1.7.4-2.3.5-2.5.5l-5.2.8c-1.3,0,1.6-.5,1.4-.6-3.7.8-1.6,0-4.1.5.6,0-1.2.6-3.3,1l3-.4c-5.1,1.5-4.6.6-9.7,2.2l1.6-.6c-2.6.8-9.8,2.5-12.3,3.7-.5,0-1.1,0,0-.3-3.2.8-6.7,1.9-10,3-3.3,1-6.4,2-8.9,2.7l.4-.3c-1.2.4-1.9.9-3.5,1.3,0,0,.4-.3-.1-.1-.6.2-3,1.4-4.5,1.9l1.2-.7c-3.1,1.1-5.3,2.3-7.3,3.6-2,1.3-3.8,2.6-5.9,4.4-.1-.2-1.2.5-2.5,1.6-1.2,1-2.6,2.4-3.4,3.5h0c-2.4,2.9-4,5.9-4.9,9-.5,1.6-.8,3.1-.9,4.8-.1.8,0,1.7,0,2.5s0,.9,0,1.3c0,.4.1.9.1,1.3-.2,2.2.7,6.1,2.6,9.7,1.9,3.7,4.8,7.1,7.2,9.6-.7-.8.4-.1,1.3.7,1.2,1.2,3.7,2.7,3.2,2.8-.2-.1-.3-.2-.5-.4.4.6,1.3,1.3,2.3,2.1,1.1.8,2.4,1.6,3.4,2.3l.6-.2c2.7,2.2,6.7,4.2,10.5,5.8,3.8,1.5,7.2,2.8,8.8,3.8,1.6.5,3.5,1.2,5.1,1.6l-.2.2c4.3,1.6,6.4,2.5,11.8,4.1h-1.2c3,.8,4.1.3,6.9,1.1.2.2.5.4.7.7,2.7.7,5.3,1.6,8,2.3l2,.6c.7.2,1.4.3,2,.5,1.4.3,2.7.6,4.1.8-.1,0-.3.1-1.2,0,1.3.3,3.7.9,5.7,1.4,2,.4,3.6.6,3.2.3,0,.4,5.6,1.2,8.5,1.5l-.5.2c2.6,0,2.6,0,6.1.5.8.2.7.3-.4,0,2.7.6,2.2.1,5.5.8h-1.3c2.8.4,2.6.3,4.2.3,1.8.1,5.4.8,5.7,1.1.4,0,2,0,3.6.1.2.1-.4.1-.7.1,4.7.7,7.1.5,10.3,1,0,.1.3.2.5.2-3.8-.3-6.8-.7-6.5-.7,0,.3,3,.6.6.7,1.2,0,2.9,0,4.6.1,1.7,0,3.5.1,5,.3.1,0,.3,0,.4.1h-.3c.7,0,1.3.1,1.9.1,1,.1,1.5.2,2.5.3.3.3,3.5.4,5,.4-.1-.3,1.9-.1,0-.5.2,0-.3,0-1.3,0-.2,0-.5,0-.6,0,0,0,0,0,.1,0-1,0-2.3-.1-3.8-.2,1.2,0,2.5,0,4.1.2.8-.1,1.7-.3,2.2-.3,2.1.5,6.1,1,6.6,1.2,4.7,0,11,.4,13.9-.2,1.3,0,1.5.2,2,.3-.8,0-1.7,0-2.1,0,2.6,0,7.9,0,8.5-.3,3.3.2-1.9.3,2.7.3h-.6c9,.7,14.7-.9,24.7-.4-.7,0-1,0-1.2,0,1.4,0,2.9,0,4.3,0h1.7s.3,0,.3,0h0s0,0,0,0v.2s-.1.7-.1.7v.4c0,0,0,.2,0,.2v1.4c0,.4,0,.8,0,1.1v1.1c.1.4.1.8.2,1.1l.2,1.1.2,1.1.3,1.1c1.7,5.8,5.3,10.7,9.5,14.6,2.5,2.1,3,2.1,4.7,3l.5.6c1,.5,2.1.9,3.2,1.2,2.2.8,4.1,1.7,6.2,2.5,2.1.7,4.4,1.4,7.5,1.6l-.7-.3c2.1.4,6.8.6,6.4.8.2,0,.7-.2,1.6,0v.2c1.8,0,3.6,0,5.4-.2,4.1,0-.6.7,5.4.6,2.2-.1,6.3-.7,5.5-.8-.9,0-2.3,0-2.4-.2l2-.2c.4-.5,1.9-1-3.1-1.2l-3.5.4-1.1-.2h2.9c-1.7-.2-2.7,0-3.9,0-.3-.1-.8-.2-1.5-.2-1.1.2-2.3.3-3.4.4-.4-.2,1.5-.3-.7-.5-1.6.1,1.5.5-1.1.5-1.6-.3-1.1-.4-3.1-.4-.3-.1.1-.2.9-.2-.9,0-2,0-3-.1-1,0-2-.2-2.4,0-1.7-.5-5.7-1-5.4-1.4-.5,0-3-.4-4.5-.9,1.4.2,0-.2-1.5-.9-1.6-.6-3.3-1.5-2.9-1.6-.5-.1-1.2-.4-2-.8-.8-.4-1.6-.9-2.5-1.5-1.7-1.2-3.5-2.7-4.8-4,.2.1.5.4.7.6-1.4-1.5-1.7-2.1-2.5-3.2-.3,0-.8-.6-1.5-1.4-.4-.4-.7-.9-1-1.3-.3-.4-.7-.9-.9-1.2-.8-2.5,1.1,1.2,1.1.3-.1.1-.7-.8-1.2-1.7-.5-.9-.8-1.7-.8-1.3-.1-.5-.2-.8-.3-1.1,0-.3,0-.4-.1-.6,0-.3,0-.5,0-1-.6-.2-.5-1.7-1-3.2,0-1.4.1-1.6.2-1.8,0-.2.1-.4,0-2,.1-.6.2-.8.2-.7,0,0,0,.5,0,.8,0,.5,0,1.1,0,1.1h0ZM139.3,121.7h0c.6,0,1.2,0,1.6.1-.3,0-.8,0-1.6-.1ZM132.9,121.1c.8,0,1.7.2,2.8.3.2.1,0,.2-.7.1.4,0-1.1-.2-2.1-.4ZM146.3,124.2c-1,0-1.4-.1-1.5-.2.5,0,1,0,1.8,0,0,0,0,0,.1,0-.1,0-.2,0-.4.1h0Z"/>
    <path class="st1" d="M148.1,123.9h.4c-.2,0-.4,0-.6-.1-.1,0-.2,0-.4,0,.2,0,.4,0,.5,0h0Z"/>
    <path class="st1" d="M265.9,101.1h.1c-.1,0-.2,0-.3,0,0,0,0,0,.1,0h0Z"/>
    <polygon class="st1" points="47.5 100.7 47.5 100.8 48 101 47.5 100.7"/>
    <path class="st1" d="M232.9,109.9c0,0-.2.1-.4.3,0,0,.2-.1.4-.3Z"/>
    <path class="st1" d="M228.3,124.5v2.2c0-1,0-1.7,0-2.2Z"/>
    <path class="st1" d="M231.5,136c.1.1.2.1.2.1h0s-.2-.2-.2-.2h0Z"/>
    <path class="st1" d="M282.8,36c-.1,0-.3-.1-.4-.2-1-.4-.3-.1.4.2Z"/>
    <path class="st1" d="M320,73.8c-.1-.6-.3-1.1-.5-1.7.2.9.3,1.7.5,1.7Z"/>
    <path class="st1" d="M224.4,17.2h0c-.1,0-.2,0-.4,0h.4c0,0,0,0,0,0Z"/>
    <path class="st1" d="M318.8,69.6c.3.9.5,1.7.7,2.4-.2-.8-.4-1.7-.7-2.4Z"/>
    <path class="st1" d="M274.7,160h.5c0,.1,0,0,0,0h-.6c0,0,0,0,0,0Z"/>
    <path class="st1" d="M275.3,160.1h.6c-.3,0-.5,0-.6,0Z"/>
    <path class="st1" d="M277.2,160.3l-1.3-.2c.5,0,1,.2,1.3.2Z"/>
    <path class="st1" d="M259.5,156.6h-.2c.1,0,.2,0,.2,0Z"/>
    <path class="st1" d="M254.9,155.2c1.1.4,2.6,1.1,4.2,1.5h.2c-.8,0-3.3-1.3-4.4-1.5h0Z"/>
    <path class="st1" d="M238.8,144.1c.9.9,1.8,1.9,2.8,2.7-.5-.5-1.1-1.2.3-.1-.5-.4-.8-.7-1-.9-.2-.2-.4-.4-.4-.4-.2-.1-.1,0,0,0,.1.2.2.5-1.7-1.3h0Z"/>
    <path class="st1" d="M232.1,134.2c1,1.8.1,0,.2,0-.6-1.2-.7-1.5-.2,0Z"/>
    <path class="st1" d="M293.5,99v.3c1.5-.4-.1-.1,0-.3Z"/>
    <path class="st1" d="M309.1,92.4c-.5.2-1,.4-1.5.5l-.6.5c.7-.3,1.4-.7,2.1-1h0Z"/>
    <path class="st1" d="M318.2,87.7c-.1.2-.3.4-.5.6.6-.8,1.1-1.6,1.6-2.4l-1.2,1.8h0Z"/>
    <path class="st1" d="M207.8,12.2l.5.4c1.1,0,1.4-.3-.5-.4Z"/>
    <path class="st1" d="M143.6,12.2c-.7,0-2.5,0-3.6.2,1.4-.1,2.9-.1,3.6-.2Z"/>
    <path class="st1" d="M31,95.9c-.4-.2-.8-.4-1.2-.6.7.4,1.5.8,2.2,1.1l-1-.6h0Z"/>
  </g>
</svg>